<mxfile host="app.diagrams.net" modified="2023-01-03T20:05:10.313Z" agent="5.0 (X11)" version="20.7.4" etag="YUBh4wrlZh_nzz_5qrxp" type="github">
  <diagram id="zJlbqQ9lh5iRJdeyotzi" name="Page-1">
    <mxGraphModel dx="794" dy="776" grid="1" gridSize="10" guides="1" tooltips="1" connect="1" arrows="1" fold="1" page="1" pageScale="1" pageWidth="1169" pageHeight="827" background="#E6D0DE" math="0" shadow="0">
      <root>
        <mxCell id="0" />
        <mxCell id="1" parent="0" />
        <mxCell id="XXkBelBsX9en5NyI0Daw-6" value="" style="rounded=1;whiteSpace=wrap;html=1;strokeColor=#000000;fillColor=none;" vertex="1" parent="1">
          <mxGeometry x="470" y="338.5" width="480" height="151" as="geometry" />
        </mxCell>
        <mxCell id="XXkBelBsX9en5NyI0Daw-1" value="Clínica" style="rounded=0;whiteSpace=wrap;html=1;strokeColor=#000000;fillColor=#FFFFFF;" vertex="1" parent="1">
          <mxGeometry x="525" y="384" width="120" height="60" as="geometry" />
        </mxCell>
        <mxCell id="XXkBelBsX9en5NyI0Daw-2" value="Médico" style="rounded=0;whiteSpace=wrap;html=1;strokeColor=#000000;fillColor=#FFFFFF;" vertex="1" parent="1">
          <mxGeometry x="260" y="300" width="120" height="60" as="geometry" />
        </mxCell>
        <mxCell id="XXkBelBsX9en5NyI0Daw-3" value="Plano" style="rounded=0;whiteSpace=wrap;html=1;strokeColor=#000000;fillColor=#FFFFFF;" vertex="1" parent="1">
          <mxGeometry x="780" y="384" width="120" height="60" as="geometry" />
        </mxCell>
        <mxCell id="XXkBelBsX9en5NyI0Daw-4" value="Paciente" style="rounded=0;whiteSpace=wrap;html=1;strokeColor=#000000;fillColor=#FFFFFF;" vertex="1" parent="1">
          <mxGeometry x="525" y="90" width="120" height="60" as="geometry" />
        </mxCell>
        <mxCell id="XXkBelBsX9en5NyI0Daw-5" value="&lt;div&gt;Enfermagem&lt;/div&gt;" style="rounded=0;whiteSpace=wrap;html=1;strokeColor=#000000;fillColor=#FFFFFF;" vertex="1" parent="1">
          <mxGeometry x="260" y="150" width="120" height="60" as="geometry" />
        </mxCell>
        <mxCell id="XXkBelBsX9en5NyI0Daw-7" value="" style="rhombus;whiteSpace=wrap;html=1;strokeColor=#000000;fillColor=none;" vertex="1" parent="1">
          <mxGeometry x="545" y="220" width="80" height="80" as="geometry" />
        </mxCell>
        <mxCell id="XXkBelBsX9en5NyI0Daw-8" value="" style="rounded=1;whiteSpace=wrap;html=1;strokeColor=#000000;fillColor=none;" vertex="1" parent="1">
          <mxGeometry x="235" y="110" width="170" height="290" as="geometry" />
        </mxCell>
      </root>
    </mxGraphModel>
  </diagram>
</mxfile>
